<svg xmlns="http://www.w3.org/2000/svg" viewBox="0 0 71.441 71.441">
    <g id="checked-2" transform="translate(0 0)">
        <g id="Groupe_1533" data-name="Groupe 1533" transform="translate(0 0)">
            <path id="Tracé_3865" data-name="Tracé 3865" d="M35.72,0a35.72,35.72,0,1,0,35.72,35.72A35.762,35.762,0,0,0,35.72,0ZM55.684,26.32,32.855,48.97a3.512,3.512,0,0,1-4.924.09L15.846,38.048a3.631,3.631,0,0,1-.269-5.013,3.542,3.542,0,0,1,5.013-.179l9.579,8.773L50.581,21.217a3.608,3.608,0,0,1,5.1,5.1Z" transform="translate(0 0)" fill="currentColor"/>
        </g>
    </g>
</svg>
