<svg id="gear-3" xmlns="http://www.w3.org/2000/svg"  viewBox="0 0 49.219 49.219">
  <g id="Groupe_829" data-name="Groupe 829">
    <path id="Tracé_2702" data-name="Tracé 2702" d="M48.123,20.437l-5.758-1.413a18.573,18.573,0,0,0-1.211-2.942l2.942-4.9a1.435,1.435,0,0,0-.2-1.759l-4.1-4.1a1.435,1.435,0,0,0-1.759-.2l-4.9,2.942a18.573,18.573,0,0,0-2.942-1.211L28.81,1.1A1.48,1.48,0,0,0,27.4,0H21.629a1.48,1.48,0,0,0-1.413,1.1L18.832,6.854A18.573,18.573,0,0,0,15.89,8.065l-4.9-2.942a1.435,1.435,0,0,0-1.759.2l-4.1,4.1a1.435,1.435,0,0,0-.2,1.759l2.942,4.9a18.573,18.573,0,0,0-1.211,2.942L1.1,20.437A1.421,1.421,0,0,0,0,21.822v5.768a1.421,1.421,0,0,0,1.1,1.384l5.566,1.413a18.573,18.573,0,0,0,1.211,2.942l-2.942,4.9a1.435,1.435,0,0,0,.2,1.759l4.1,4.1a1.435,1.435,0,0,0,1.759.2l4.9-2.942a18.573,18.573,0,0,0,2.942,1.211l1.384,5.566a1.48,1.48,0,0,0,1.413,1.1H27.4a1.48,1.48,0,0,0,1.413-1.1l1.384-5.566a18.572,18.572,0,0,0,2.942-1.211l4.9,2.942a1.435,1.435,0,0,0,1.759-.2l4.1-4.1a1.435,1.435,0,0,0,.2-1.759l-2.942-4.9a18.573,18.573,0,0,0,1.211-2.942l5.758-1.413a1.421,1.421,0,0,0,1.1-1.384V21.822A1.421,1.421,0,0,0,48.123,20.437ZM24.513,31.915a7.21,7.21,0,1,1,7.21-7.21A7.212,7.212,0,0,1,24.513,31.915Z" fill="currentColor"/>
  </g>
</svg>
